<mxfile host="Electron" agent="Mozilla/5.0 (X11; Linux x86_64) AppleWebKit/537.36 (KHTML, like Gecko) draw.io/24.7.17 Chrome/128.0.6613.36 Electron/32.0.1 Safari/537.36" version="24.7.17">
  <diagram name="Page-1" id="wzSeXbdC4M1kvN3K4aid">
    <mxGraphModel dx="928" dy="618" grid="1" gridSize="10" guides="1" tooltips="1" connect="1" arrows="1" fold="1" page="1" pageScale="1" pageWidth="827" pageHeight="1169" math="0" shadow="0">
      <root>
        <mxCell id="0" />
        <mxCell id="1" parent="0" />
        <mxCell id="Qp0noahopE_hFkjEiGAo-5" style="edgeStyle=orthogonalEdgeStyle;rounded=0;orthogonalLoop=1;jettySize=auto;html=1;exitX=0.755;exitY=0.5;exitDx=0;exitDy=0;exitPerimeter=0;endArrow=none;endFill=0;strokeWidth=3;" edge="1" parent="1" source="Qp0noahopE_hFkjEiGAo-1" target="Qp0noahopE_hFkjEiGAo-4">
          <mxGeometry relative="1" as="geometry" />
        </mxCell>
        <mxCell id="Qp0noahopE_hFkjEiGAo-6" style="edgeStyle=orthogonalEdgeStyle;rounded=0;orthogonalLoop=1;jettySize=auto;html=1;exitX=0.98;exitY=0.5;exitDx=0;exitDy=0;exitPerimeter=0;strokeWidth=3;endArrow=none;endFill=0;" edge="1" parent="1" source="Qp0noahopE_hFkjEiGAo-4" target="Qp0noahopE_hFkjEiGAo-3">
          <mxGeometry relative="1" as="geometry" />
        </mxCell>
        <mxCell id="Qp0noahopE_hFkjEiGAo-7" style="edgeStyle=orthogonalEdgeStyle;rounded=0;orthogonalLoop=1;jettySize=auto;html=1;exitX=1;exitY=0.5;exitDx=0;exitDy=0;exitPerimeter=0;entryX=0.11;entryY=0.5;entryDx=0;entryDy=0;entryPerimeter=0;endArrow=none;endFill=0;strokeWidth=3;" edge="1" parent="1" source="Qp0noahopE_hFkjEiGAo-3" target="Qp0noahopE_hFkjEiGAo-2">
          <mxGeometry relative="1" as="geometry" />
        </mxCell>
        <mxCell id="Qp0noahopE_hFkjEiGAo-10" value="" style="group" vertex="1" connectable="0" parent="1">
          <mxGeometry x="250" y="306" width="130" height="52" as="geometry" />
        </mxCell>
        <mxCell id="Qp0noahopE_hFkjEiGAo-4" value="" style="shape=mxgraph.cisco.switches.workgroup_switch;sketch=0;html=1;pointerEvents=1;dashed=0;fillColor=#036897;strokeColor=#ffffff;strokeWidth=2;verticalLabelPosition=bottom;verticalAlign=top;align=center;outlineConnect=0;" vertex="1" parent="Qp0noahopE_hFkjEiGAo-10">
          <mxGeometry x="-20" width="101" height="50" as="geometry" />
        </mxCell>
        <mxCell id="Qp0noahopE_hFkjEiGAo-8" value="S1" style="text;html=1;align=center;verticalAlign=middle;whiteSpace=wrap;rounded=0;fontColor=#FFFFFF;fontSize=14;fontStyle=1" vertex="1" parent="Qp0noahopE_hFkjEiGAo-10">
          <mxGeometry x="10" y="22" width="60" height="30" as="geometry" />
        </mxCell>
        <mxCell id="Qp0noahopE_hFkjEiGAo-22" value="&lt;b&gt;&lt;font style=&quot;font-size: 13px;&quot;&gt;F0/5&lt;/font&gt;&lt;/b&gt;" style="text;html=1;align=center;verticalAlign=middle;whiteSpace=wrap;rounded=0;" vertex="1" parent="Qp0noahopE_hFkjEiGAo-10">
          <mxGeometry x="70" width="60" height="30" as="geometry" />
        </mxCell>
        <mxCell id="Qp0noahopE_hFkjEiGAo-11" value="" style="group" vertex="1" connectable="0" parent="1">
          <mxGeometry x="414" y="305" width="78" height="57" as="geometry" />
        </mxCell>
        <mxCell id="Qp0noahopE_hFkjEiGAo-3" value="" style="shape=mxgraph.cisco.routers.router;sketch=0;html=1;pointerEvents=1;dashed=0;fillColor=#036897;strokeColor=#ffffff;strokeWidth=2;verticalLabelPosition=bottom;verticalAlign=top;align=center;outlineConnect=0;" vertex="1" parent="Qp0noahopE_hFkjEiGAo-11">
          <mxGeometry width="78" height="53" as="geometry" />
        </mxCell>
        <mxCell id="Qp0noahopE_hFkjEiGAo-9" value="R1" style="text;html=1;align=center;verticalAlign=middle;whiteSpace=wrap;rounded=0;fontColor=#FFFFFF;fontSize=14;fontStyle=1" vertex="1" parent="Qp0noahopE_hFkjEiGAo-11">
          <mxGeometry x="9" y="27" width="60" height="30" as="geometry" />
        </mxCell>
        <mxCell id="Qp0noahopE_hFkjEiGAo-14" value="" style="group" vertex="1" connectable="0" parent="1">
          <mxGeometry x="560" y="300" width="83" height="62" as="geometry" />
        </mxCell>
        <mxCell id="Qp0noahopE_hFkjEiGAo-2" value="" style="shape=mxgraph.cisco.computers_and_peripherals.workstation;sketch=0;html=1;pointerEvents=1;dashed=0;fillColor=#036897;strokeColor=#ffffff;strokeWidth=2;verticalLabelPosition=bottom;verticalAlign=top;align=center;outlineConnect=0;" vertex="1" parent="Qp0noahopE_hFkjEiGAo-14">
          <mxGeometry width="83" height="62" as="geometry" />
        </mxCell>
        <mxCell id="Qp0noahopE_hFkjEiGAo-13" value="&lt;b&gt;&lt;font style=&quot;font-size: 13px;&quot;&gt;PC-B&lt;/font&gt;&lt;/b&gt;" style="text;html=1;align=center;verticalAlign=middle;whiteSpace=wrap;rounded=0;" vertex="1" parent="Qp0noahopE_hFkjEiGAo-14">
          <mxGeometry x="5" y="6" width="60" height="30" as="geometry" />
        </mxCell>
        <mxCell id="Qp0noahopE_hFkjEiGAo-17" value="" style="group" vertex="1" connectable="0" parent="1">
          <mxGeometry x="80" y="300" width="83" height="62" as="geometry" />
        </mxCell>
        <mxCell id="Qp0noahopE_hFkjEiGAo-1" value="" style="shape=mxgraph.cisco.computers_and_peripherals.workstation;sketch=0;html=1;pointerEvents=1;dashed=0;fillColor=#036897;strokeColor=#ffffff;strokeWidth=2;verticalLabelPosition=bottom;verticalAlign=top;align=center;outlineConnect=0;" vertex="1" parent="Qp0noahopE_hFkjEiGAo-17">
          <mxGeometry width="83" height="62" as="geometry" />
        </mxCell>
        <mxCell id="Qp0noahopE_hFkjEiGAo-12" value="&lt;b&gt;&lt;font style=&quot;font-size: 13px;&quot;&gt;PC-A&lt;/font&gt;&lt;/b&gt;" style="text;html=1;align=center;verticalAlign=middle;whiteSpace=wrap;rounded=0;" vertex="1" parent="Qp0noahopE_hFkjEiGAo-17">
          <mxGeometry x="3" y="6" width="60" height="30" as="geometry" />
        </mxCell>
        <mxCell id="Qp0noahopE_hFkjEiGAo-18" value="&lt;b&gt;&lt;font style=&quot;font-size: 13px;&quot;&gt;F0/6&lt;/font&gt;&lt;/b&gt;" style="text;html=1;align=center;verticalAlign=middle;whiteSpace=wrap;rounded=0;" vertex="1" parent="1">
          <mxGeometry x="180" y="328" width="60" height="30" as="geometry" />
        </mxCell>
        <mxCell id="Qp0noahopE_hFkjEiGAo-20" value="&lt;b&gt;&lt;font style=&quot;font-size: 13px;&quot;&gt;G0/0/0&lt;/font&gt;&lt;/b&gt;" style="text;html=1;align=center;verticalAlign=middle;whiteSpace=wrap;rounded=0;" vertex="1" parent="1">
          <mxGeometry x="484" y="305" width="60" height="30" as="geometry" />
        </mxCell>
        <mxCell id="Qp0noahopE_hFkjEiGAo-21" value="&lt;b&gt;&lt;font style=&quot;font-size: 13px;&quot;&gt;G0/0/1&lt;/font&gt;&lt;/b&gt;" style="text;html=1;align=center;verticalAlign=middle;whiteSpace=wrap;rounded=0;" vertex="1" parent="1">
          <mxGeometry x="360" y="328" width="60" height="30" as="geometry" />
        </mxCell>
      </root>
    </mxGraphModel>
  </diagram>
</mxfile>
